<?xml version="1.0" encoding="UTF-8"?>
<svg id="Layer_1" xmlns="http://www.w3.org/2000/svg" xmlns:xlink="http://www.w3.org/1999/xlink" version="1.1" viewBox="0 0 1020 1020">
  <!-- Generator: Adobe Illustrator 30.2.1, SVG Export Plug-In . SVG Version: 2.1.1 Build 1)  -->
  <defs>
    <style>
      .st0 {
        fill: #fcdbdb;
      }

      .st0, .st1, .st2, .st3, .st4, .st5, .st6, .st7, .st8, .st9, .st10, .st11, .st12, .st13, .st14, .st15, .st16, .st17, .st18 {
        stroke-width: 4.13px;
      }

      .st0, .st1, .st3, .st4, .st5, .st6, .st7, .st8, .st9, .st19, .st10, .st11, .st12, .st13, .st14, .st15, .st16, .st17, .st18 {
        stroke-miterlimit: 10;
      }

      .st0, .st2, .st3, .st4, .st5, .st6, .st7, .st8, .st9, .st19, .st10, .st11, .st13, .st14, .st15, .st16, .st17, .st18 {
        stroke: #231f20;
      }

      .st1 {
        fill: #979797;
        stroke: #000;
      }

      .st20, .st6 {
        fill: #231f20;
      }

      .st2 {
        stroke-linejoin: round;
      }

      .st2, .st19, .st13, .st15 {
        fill: none;
      }

      .st2, .st13 {
        stroke-linecap: round;
      }

      .st21, .st3 {
        fill: #1fa64a;
      }

      .st22 {
        fill: #fbaf41;
      }

      .st4 {
        fill: #d0d7b1;
      }

      .st5 {
        fill: #be9a2e;
      }

      .st7 {
        fill: #a2a1a1;
      }

      .st8 {
        fill: url(#linear-gradient1);
      }

      .st9 {
        fill: #2f1f0f;
      }

      .st19 {
        stroke-width: 2.06px;
      }

      .st10 {
        fill: #959595;
      }

      .st11 {
        fill: #2f2010;
      }

      .st12 {
        stroke: #2f2010;
      }

      .st23 {
        fill: #610c0d;
      }

      .st14 {
        fill: #f9f3a4;
      }

      .st16 {
        fill: #faab24;
      }

      .st24 {
        fill: #dae120;
      }

      .st25 {
        fill: #fff200;
      }

      .st17 {
        fill: url(#linear-gradient);
      }

      .st18 {
        fill: #513412;
      }
    </style>
    <linearGradient id="linear-gradient" x1="379.99" y1="851.35" x2="459.5" y2="943.98" gradientUnits="userSpaceOnUse">
      <stop offset=".43" stop-color="#63a563"/>
      <stop offset=".88" stop-color="#1d401d"/>
    </linearGradient>
    <linearGradient id="linear-gradient1" x1="643.89" y1="826.57" x2="720.68" y2="826.57" gradientUnits="userSpaceOnUse">
      <stop offset=".09" stop-color="#2e2b2d"/>
      <stop offset=".16" stop-color="#312e30"/>
      <stop offset=".21" stop-color="#3a3839"/>
      <stop offset=".26" stop-color="#4a484a"/>
      <stop offset=".3" stop-color="#616061"/>
      <stop offset=".34" stop-color="#7f7e80"/>
      <stop offset=".38" stop-color="#a3a4a5"/>
      <stop offset=".42" stop-color="#cdcfd0"/>
      <stop offset=".42" stop-color="#d0d2d3"/>
      <stop offset=".56" stop-color="#a2a3a4"/>
      <stop offset=".71" stop-color="#77787a"/>
      <stop offset=".82" stop-color="#5d5d5f"/>
      <stop offset=".89" stop-color="#545456"/>
    </linearGradient>
  </defs>
  <path class="st20" d="M825.72,406.38c7.39,4.22,12.64,11.46,14.2,19.85.7,3.79.65,8.95-2.75,11.53-2.74,2.08-5.8,1.17-6.83-2.1-1.1-3.51,1.34-6.66,4.23-8.39,4.02-2.41,8.94-2.33,13.45-1.89,7.52.73,20.3,3.15,20.85,12.83.25,4.48-2.87,8.64-6.32,11.15-2.16,1.58-4.62,2.81-7.09,3.83-2.09.86-5.41,2.7-7.64,2.44l2.08.56c.61.29.34,1.56.55,1.65-.05-.02,1.9-.82,1.6-.71,1.67-.58,3.43-.91,5.19-1.02,3.15-.21,6.37,0,9.46.62,5.5,1.11,11.23,3.51,14.17,8.58,2.18,3.77,3.02,9.96-.97,12.93-2.56,1.91-7.69,2.53-9.45-.76l.56,2.08-.05-.48-.56,2.08c-.47.79.49-.05.79-.21.46-.25.92-.5,1.41-.71,1.15-.5,2.38-.85,3.6-1.13,2.39-.55,4.95-.66,7.39-.34,4.57.6,9.4,2.82,12.14,6.64,1.94,2.71,2.8,7.94-1.04,9.57-2.37,1.01-5.62-.18-7.81-1.12-2.55-1.09-4.88-2.64-6.93-4.49l-1.82,6.9c5.2-.75,10.42,1.97,14.41,5.04s8.41,7.54,10.37,12.5c1.5,3.8,1.43,8.89-1.9,11.77-4.05,3.5-10.15.1-13.82-2.42-1.05-.72-2.01-1.52-2.94-2.38-.73-.68-1.55-2.11-2.34-2.65-1.28-.88,1.68.26-.38.22.39,0-.68-.83.68-.22.72.32,1.27.58,1.84,1.25,1.61,1.93,2.56,4.65,3.48,6.96,1.23,3.12,2.28,6.32,3.14,9.56.77,2.93,1.47,5.93,1.85,8.94.32,2.57.58,5.79-1.17,7.96-1.49,1.85-3.51,1.28-5.52.63-2.87-.93-5.8-2.05-8.44-3.52-2.12-1.18-4.09-2.64-5.4-4.72-.63-1.01-.76-2.04-1.21-3.09-.08-.19.08-.97-.02-.99-1.26,1.13-1.37,1.49-.33,1.07.29-.08.58-.12.88-.11,5.27-.39,10,4.59,13.29,8.07,4.02,4.26,7.43,9.02,10.23,14.15.67,1.24,1.31,2.49,1.91,3.76.34.72.75,2.77,1.3,3.3l.06.27c.06.48.3.34.73-.42-.03-.07-.64.05-.75,0-1.23-.64-2.97-.66-4.3-1.22-2.09-.87-4.05-2.17-5.7-3.72-.83-.78-1.62-1.62-2.3-2.54-.25-.34-.84-1.71-1.19-1.88-.11-.54-.23-.49-.38.14-.07.41-.31.67-.7.8-.07-.15,1.95.35,1.96.36.92.37,1.82,1,2.65,1.54,2.15,1.4,4.04,3.18,5.7,5.14,3.16,3.73,5.24,8.38,6.07,13.18.36,2.06.52,4.33.22,6.41-.42,2.88-1.87,3.05-4.57,3.05-6.87,0-13.45-2.34-20.15-3.55-3.27-.59-6.79-1.33-9.71.69s-3.23,5.88-3,9.16c1.02,14.62,11.89,24.97,22.31,33.96,4.01,3.45,9.87-2.36,5.84-5.84-6.3-5.43-12.86-10.99-16.86-18.43-1.81-3.37-3.03-7.13-3.09-10.98,0-.18.12-1.17.01-1.28-.03-.04-.86-.14-.9.3,0-.12,1.76.13,1.87.14,2.23.31,4.45.84,6.64,1.35,4.17.96,8.32,1.95,12.58,2.44,3.9.45,8.63.78,12.15-1.27,6.59-3.84,5.77-13.85,4.24-20.13-1.67-6.9-5.56-13.46-10.88-18.17-4.46-3.96-12.94-9.63-18.45-4.19-6.26,6.18,3.15,15.35,8.15,18.64s17.51,7.82,19.82-1.26c.96-3.79-1-7.59-2.61-10.9-1.72-3.54-3.74-6.94-6.01-10.16-4.51-6.37-10.15-13.28-17.24-16.89-6.27-3.2-18.65-3.8-17.69,6.39.77,8.15,7.47,13.4,14.49,16.39,3.79,1.62,8.07,3.65,12.28,3.46,3.94-.18,7.23-2.39,9.33-5.65,4.56-7.07,1.61-17.31-.52-24.74-1.19-4.16-2.72-8.21-4.48-12.16-1.52-3.41-3.49-6.93-6.92-8.73-3.21-1.69-7.36-1.47-10.23.79-3.31,2.61-3.62,7.02-1.63,10.56s5.34,6.02,8.48,8.12c3.49,2.33,7.5,4.15,11.69,4.64,7.63.89,13.91-3.88,16.22-11,2.4-7.39-.57-14.97-5.13-20.83-4.79-6.15-11.27-11.55-18.7-14.11-3.77-1.29-7.59-1.47-11.5-.91-3.08.45-3.95,4.98-1.82,6.9,5.18,4.69,12.59,8.93,19.83,8.26,6.9-.63,11.64-6.42,11.73-13.24s-4.66-12.56-10.21-15.91c-5.86-3.53-12.89-4.59-19.59-3.53-5.03.8-16.61,4.47-12.14,11.52,3.21,5.06,9.88,6.55,15.41,5.19,5.83-1.44,10.33-6.16,11.44-12.07,1.24-6.6-1.05-13.48-5.6-18.35s-11.4-7.65-18.01-8.66-16.1-1.54-21.78,3.13c-2.71,2.23-3.9,6.07-2.1,9.27,2.05,3.64,6.02,3.41,9.45,2.21,6.66-2.32,13.66-4.99,18.56-10.29,4.57-4.95,7.3-11.91,5.4-18.61s-7.9-11.64-14.4-14.15-15.07-3.71-22.16-2.87c-6.56.78-13.29,3.94-16.44,10.07-2.92,5.68-1.93,13.04,3.07,17.25,5.38,4.53,13.31,2.97,17.73-2.15,9.35-10.82,2.11-28.55-6.73-37.26-2.29-2.25-4.9-4.2-7.69-5.79-4.62-2.64-8.79,4.49-4.17,7.13h0Z"/>
  <polygon class="st7" points="176.13 963.37 176.13 974.94 178.7 985.23 191.99 995.09 494.16 995.09 477.88 981.8 483.45 976.66 483.48 968.13 176.13 963.37"/>
  <polygon class="st7" points="554.62 969.57 554.77 977.64 541.29 984.52 541.94 986.98 558.32 986.03 558.64 993.13 853.49 993.13 859.29 976.03 554.62 969.57"/>
  <circle class="st3" cx="509.79" cy="41.57" r="16.66"/>
  <polygon class="st5" points="121.71 615.87 112.16 960.34 889 976.58 899.99 628.3 121.71 615.87"/>
  <g>
    <path class="st7" d="M74.12,767.8c2.38-.33,4.62-.16,6.75.32l.42-1.28c16.24-9.08,50.16-42.52,52.55-47.3,2.39-4.78,5.26-35.83-8.12-62.11l5.64-11.62c2.63-7.69,5.13-19.68.09-29.46-8.12-15.77-23.89,3.82-37.74,11.47-6.39,3.52-17.2-1.91-52.08,4.78-47.78,11.47-46.82,58.29-34.4,69.75,12.42,11.47,21.98,33.44,27.23,42.52,5.26,9.08,22.45,25.32,39.65,22.93Z"/>
    <path class="st11" d="M206.48,659.35c-20.07,2.39-22.45-18.63-33.44-12.9-10.99,5.73-12.9,9.08-21.02,2.39-7-5.76-19.65,1.94-23.02,4.18l-3.25,4.41c13.38,26.28,10.51,57.33,8.12,62.11-2.39,4.78-36.31,38.22-52.55,47.3l.16,1.43c12.96,3.32,21.86,19.04,32.81,18.64,12.9-.48,32.49,13.85,52.08,15.77,19.59,1.91,37.27-21.5,43.95-53.51,6.69-32.01,7.32-108.4-3.82-89.82Z"/>
  </g>
  <g>
    <path class="st11" d="M918.42,774.48c-9.95-6.08-35.64-54.71-40.34-63.27-4.7-8.57,1.38-30.12,12.99-56.92l-.27-.71c-7.46-.16-17.72-1.46-22.91-3.19-9.11-3.04-23.85-1.3-22.11,14.31-24.71.43-45.55,7.23-50.29,49.43-5.54,49.31,11.49,97.53,37.29,101.89,14.31,2.6,20.38-21.68,35.99-21.68s7.8-18.21,25.15-17.34c16.58.83,13.78-2.3,24.86-2.19l-.34-.32Z"/>
    <path class="st7" d="M937.18,635.64s-16.91-31.22-30.78-24.71c-13.87,6.5-8.67,37.29-6.5,40.76.94,1.5-3.14,2.02-8.8,1.89l.33.71c-11.6,26.8-17.68,48.35-12.99,56.92,4.7,8.57,30.39,57.2,40.34,63.27l1.93.34c13.01.43,43.36,4.34,54.2-18.21,10.84-22.55,45.53-21.25,45.09-54.2-.43-32.95-19.94-58.1-82.81-66.77Z"/>
  </g>
  <polygon class="st5" points="828.73 463.67 843.39 463.67 856.59 475.18 856.59 561.62 831.49 561.62 828.73 463.67"/>
  <g>
    <g>
      <polygon class="st16" points="234.24 862.94 234.24 854.56 217.08 854.56 217.08 862.94 196.74 862.94 196.74 900.76 252.17 900.76 252.17 862.94 234.24 862.94"/>
      <rect class="st25" x="218.67" y="856.32" width="13.55" height="8.86"/>
      <rect class="st12" x="196.74" y="931.32" width="55.43" height="26.58"/>
    </g>
    <g>
      <polygon class="st16" points="301.69 862.94 301.69 854.56 284.53 854.56 284.53 862.94 264.19 862.94 264.19 900.76 319.62 900.76 319.62 862.94 301.69 862.94"/>
      <rect class="st12" x="264.19" y="931.32" width="55.43" height="26.58"/>
      <rect class="st25" x="286.19" y="854.79" width="13.55" height="8.86"/>
    </g>
    <g>
      <path class="st1" d="M189.92,925.18c-10.52,0-13.75-4.54-16.98-6.34-3.23-1.79.36-13.27,17.22-13.51l-.24,19.85Z"/>
      <path class="st1" d="M327.72,928.7c10.52.22,13.84-4.26,17.11-5.99,3.27-1.73-.09-13.28-16.94-13.86l-.17,19.85Z"/>
      <rect class="st1" x="189.8" y="904.61" width="136.09" height="25.11"/>
    </g>
  </g>
  <g>
    <rect class="st17" x="397.75" y="868.64" width="58.65" height="75.11"/>
    <g>
      <polyline class="st13" points="446.08 899.22 435.78 899.22 435.78 923.36 445.37 923.36"/>
      <line class="st13" x1="436.31" y1="911.29" x2="442.17" y2="911.29"/>
    </g>
  </g>
  <rect class="st18" x="543.01" y="866.02" width="39.41" height="75.98"/>
  <rect class="st9" x="658.92" y="872.93" width="23.95" height="66.47"/>
  <rect class="st9" x="694.71" y="862.71" width="19.81" height="66.47" transform="translate(-102.25 90.86) rotate(-6.88)"/>
  <rect class="st8" x="643.89" y="818.46" width="76.79" height="16.22" rx="5.76" ry="5.76"/>
  <g>
    <rect class="st14" x="661.42" y="750.76" width="43.69" height="60.35"/>
    <line class="st2" x1="669.42" y1="762.44" x2="682.18" y2="762.44"/>
    <line class="st2" x1="670.93" y1="774.55" x2="688.67" y2="774.55"/>
    <polyline class="st2" points="670.07 794.02 691.92 794.02 691.92 787.09"/>
  </g>
  <g>
    <path class="st13" d="M283.51,737.95l19.44-34.76c.62-1.11,2.3-.82,2.5.44l5.84,35.61"/>
    <line class="st13" x1="295.79" y1="719.21" x2="306.45" y2="721.47"/>
    <path class="st13" d="M337.42,681.16l9.63,42.17c.13.57.93.6,1.1.04l10.45-34.56c.18-.58,1.02-.52,1.11.09l4.69,34.65c.08.59.89.68,1.1.12l13.9-37.37"/>
    <polyline class="st13" points="432.43 687.83 409.16 687.83 409.16 731.71 429.38 731.71"/>
    <line class="st13" x1="409.35" y1="704.81" x2="428.24" y2="704.81"/>
    <path class="st20" d="M480.97,701.46c-4-.27-7.97-1.17-11.99-.98-3.44.16-6.76,1.19-9.49,3.32s-4.91,6.11-3.38,9.53c.79,1.77,2.78,2.83,4.45,3.65,1.76.86,3.62,1.52,5.54,1.89,3.8.74,7.34.5,10.91,1.96-.3-.12.14.07.23.11.21.1.41.2.61.32.37.21.73.43,1.07.68-.26-.19.11.1.19.16.15.13.29.26.42.4s.27.29.4.43c0,0,.21.26.08.1-.11-.15.11.16.13.19.22.32.41.66.58,1.01.04.09.08.18.12.27-.02-.04-.1-.26-.02-.04s.15.43.22.65c.11.38.2.76.27,1.15s0-.16.03.23c.02.23.04.46.05.69.01.4,0,.79-.02,1.19-.01.2-.03.4-.05.6-.03.25,0,.04,0,0-.02.14-.05.29-.08.43-.17.89-.43,1.77-.75,2.61-.24.63-.6,1.39-1.03,2.19s-.87,1.53-1.36,2.27c-.23.34-.46.68-.71,1.02-.06.08-.12.17-.18.25.03-.04.15-.19,0,0s-.3.38-.46.56c-.55.65-1.14,1.28-1.78,1.85-.15.14-.31.27-.46.4-.08.07-.16.13-.24.2.03-.03.2-.15.01,0-.36.27-.74.53-1.12.76-.36.22-.73.42-1.11.61-.07.03-.53.25-.28.14-.23.1-.46.18-.69.26-.4.14-.8.25-1.22.35-.21.05-.41.08-.62.12-.24.04-.02,0,.03,0-.14.02-.28.03-.42.04-.42.03-.84.04-1.26.02-.21,0-.42-.03-.63-.05.31.04-.21-.04-.31-.06-.35-.07-.69-.16-1.03-.27-.17-.05-.33-.11-.5-.17-.08-.03-.16-.06-.24-.09.18.07.2.09.01,0-.66-.32-1.28-.67-1.88-1.1-.07-.05-.44-.33-.28-.21s-.21-.18-.27-.23c-.3-.25-.58-.51-.86-.78-.54-.53-1.05-1.09-1.53-1.68-.12-.14-.23-.29-.35-.43-.15-.18.02.02.04.05-.06-.07-.11-.15-.17-.22-.24-.32-.48-.65-.71-.98-.44-.64-.87-1.29-1.28-1.95s-.79-1.31-1.18-1.97c-.55-.93-1.89-1.34-2.82-.74s-1.32,1.83-.74,2.82c3.25,5.56,7.55,11.78,14.61,12.17,8.06.45,14.06-6.86,16.81-13.64,1.44-3.56,1.69-7.54.1-11.09s-5.01-5.43-8.56-6.29c-1.98-.48-4.02-.65-6.04-.87-1.03-.11-1.57-.18-2.6-.38-.95-.18-1.89-.43-2.81-.75-.21-.07-.42-.15-.62-.23-.07-.03-.54-.22-.32-.13-.44-.19-.87-.4-1.29-.62-.39-.2-.77-.42-1.15-.65-.18-.11-.36-.22-.53-.34-.08-.06-.17-.11-.25-.17.17.13.03.03-.05-.05-.1-.09-.19-.18-.28-.28.03.03.15.22.02.02-.05-.08-.11-.17-.15-.26.02.05.08.25.03.03-.02-.1-.05-.19-.07-.29.01.06,0,.27.02.05,0-.1.02-.7-.02-.36.05-.38.16-.76.29-1.13.05-.15.21-.47.05-.15.09-.18.17-.36.27-.54.17-.3.36-.58.55-.86.17-.25-.22.24,0,.01.06-.06.11-.13.17-.2.13-.15.27-.3.41-.44.24-.25.51-.46.77-.69.17-.15-.05.04-.08.06.07-.05.14-.1.21-.15.17-.12.34-.23.51-.34.3-.19.61-.36.92-.53.16-.08.32-.16.48-.24.08-.04.16-.07.24-.11.22-.1-.28.1.09-.03.7-.26,1.41-.49,2.15-.65.35-.08.7-.14,1.05-.19.24-.04-.08.01-.11.01.09,0,.18-.02.26-.03.27-.03.54-.05.81-.06,1.04-.06,2.08-.04,3.12.02,2.05.12,4.08.42,6.11.66,1,.12,2,.22,3,.29,1.08.07,2.11-1,2.06-2.06-.05-1.18-.91-1.99-2.06-2.06h0Z"/>
    <path class="st20" d="M531.05,692.06c-8.52,2.6-17.69,6.41-22.15,14.68-2.27,4.21-2.87,9.06-2.05,13.74.76,4.35,2.94,8.36,5.88,11.61s6.85,6.05,11.08,7.1c4.6,1.14,9.21-.55,12.95-3.24,6.55-4.7,10.81-12.57,10.57-20.7s-4.73-15.83-11.55-20.18c-.78-.5-1.59-.94-2.42-1.33-.98-.46-2.27-.3-2.82.74-.48.92-.3,2.33.74,2.82.81.38,1.59.8,2.34,1.28.36.23.72.47,1.07.72.17.13.35.25.52.38-.31-.24.23.19.3.25.66.55,1.29,1.14,1.88,1.76.3.31.59.63.87.96.14.16.28.33.41.5.03.04.27.34.12.15-.13-.17.1.13.12.16,1.08,1.44,1.92,2.99,2.69,4.62.1.21-.01-.04-.03-.07.05.11.09.23.14.34.08.2.16.4.23.6.16.43.3.87.43,1.31.24.82.44,1.66.59,2.51.04.21.07.42.1.64.05.32-.03-.33,0,0,0,.09.02.18.03.27.05.46.08.92.1,1.38.03.89,0,1.78-.07,2.67-.02.21-.05.43-.07.64-.03.24,0-.06.01-.09-.02.12-.04.24-.06.36-.07.45-.16.91-.26,1.36-.2.87-.45,1.72-.75,2.56-.06.17-.13.35-.19.52-.03.07-.24.61-.17.44.1-.23-.06.13-.08.18-.04.08-.08.17-.11.25-.1.22-.21.45-.32.67-.4.8-.84,1.57-1.33,2.32-.23.36-.48.72-.73,1.06-.07.09-.41.54-.18.24-.15.19-.31.38-.46.57-.57.68-1.18,1.33-1.83,1.95-.29.27-.59.54-.89.8-.16.14-.33.28-.5.41-.04.03-.35.27-.15.12.17-.13-.13.09-.16.12-.72.53-1.47,1.01-2.24,1.45-.38.21-.76.41-1.15.6-.56.27-.7.33-1.19.51s-.99.34-1.5.46c-.25.06-.51.11-.77.16,0,0-.35.05-.17.03s-.34.02-.39.03c-.51.03-1.02.01-1.53-.03,0,0-.35-.05-.16-.02s-.16-.03-.16-.03c-.29-.06-.57-.11-.85-.19-.5-.13-.98-.29-1.46-.47-.14-.05-.28-.1-.41-.16.05.02.2.09-.01-.01-.27-.12-.53-.25-.8-.38-.9-.46-1.76-.99-2.6-1.56-.19-.13-.38-.26-.56-.4-.07-.05-.56-.43-.29-.21-.39-.3-.76-.62-1.13-.95-.71-.63-1.39-1.3-2.02-2.01-.3-.34-.6-.69-.88-1.05.2.25-.1-.13-.15-.21-.16-.21-.31-.42-.46-.64-.54-.78-1.02-1.59-1.46-2.44-.1-.2-.21-.41-.3-.62-.06-.12-.11-.24-.16-.36,0-.01-.14-.31-.05-.11s-.04-.1-.05-.12c-.05-.12-.1-.24-.14-.37-.1-.27-.2-.54-.29-.81-.33-.99-.58-2.01-.76-3.04-.02-.1-.1-.7-.07-.41-.03-.25-.06-.5-.08-.75-.04-.54-.07-1.08-.07-1.62,0-.47.02-.93.05-1.4.02-.25.04-.5.07-.75.04-.43.02-.19,0-.09.02-.14.04-.28.07-.43.17-1.03.43-2.04.78-3.02.08-.24.17-.47.27-.7-.11.27.14-.32.18-.39.21-.45.44-.89.69-1.33.23-.4.48-.8.74-1.18.13-.19.26-.38.4-.57.06-.08.12-.16.18-.24-.17.23.03-.04.11-.13.61-.75,1.27-1.46,1.96-2.13.31-.3.64-.59.97-.87.18-.15.36-.3.54-.45.1-.08.21-.17.31-.25-.17.14-.03.02.06-.04,3.44-2.57,7.11-4.15,11.03-5.48,1.04-.35,2.09-.68,3.14-1s1.79-1.46,1.44-2.54-1.43-1.78-2.54-1.44h0Z"/>
    <path class="st20" d="M637.44,722.62c6.84-.09,13.68-.18,20.52-.27,1.08-.01,2.11-.94,2.06-2.06s-.91-2.08-2.06-2.06c-6.84.09-13.68.18-20.52.27-1.08.01-2.11.94-2.06,2.06s.91,2.08,2.06,2.06h0Z"/>
    <path class="st20" d="M697.87,689.97c-4.53-.55-8.61,2.41-11.28,5.79s-5.4,7.43-6.09,11.87.2,9.14,1.93,13.35c1.61,3.9,3.78,7.73,7.11,10.42,3.49,2.83,7.88,4.36,12.38,3.56,4.1-.73,7.54-3.53,10.37-6.43,3.01-3.08,6.13-6.49,6.88-10.9.69-4.06.05-8.37-1.38-12.21-2.59-6.93-7.85-13.01-15.02-15.36-.81-.27-1.65-.47-2.49-.62-1.06-.19-2.28.29-2.54,1.44-.23,1.01.3,2.34,1.44,2.54.79.14,1.56.33,2.32.57.36.12.72.24,1.08.38.14.05.48.2.16.06.21.1.43.19.64.29.71.34,1.4.73,2.06,1.15.32.2.63.42.94.64.14.1.28.21.42.31-.34-.25.18.15.27.22,1.23,1.02,2.34,2.18,3.34,3.43.24.3-.12-.16.11.15.12.17.25.34.37.51.24.34.48.69.7,1.05.44.69.84,1.39,1.21,2.11.18.35.35.7.51,1.06.07.16.15.33.22.5.13.29-.11-.29,0,0,.04.11.09.22.13.34.3.76.56,1.53.78,2.31s.41,1.57.55,2.36c.03.18.06.35.09.53.02.1.09.65.05.29.07.52.12,1.05.15,1.58.12,2.11.01,3.7-.75,5.65.09-.22-.11.24-.14.31-.11.23-.22.45-.35.67-.24.44-.51.86-.8,1.28-.49.7-.95,1.26-1.64,2.03-1.22,1.38-2.48,2.73-3.84,3.97-.32.29-.65.58-.99.86-.15.13-.31.26-.47.38-.19.15-.01,0,.02-.02-.13.1-.27.2-.4.29-.72.52-1.48.99-2.27,1.38-.18.09-.35.17-.53.25.31-.14-.23.09-.32.12-.43.16-.87.29-1.31.4-.19.05-.38.09-.58.12-.1.02-.2.03-.29.05.09-.02.37-.03-.06,0-.48.04-.96.06-1.44.05-.2,0-.41-.02-.61-.04-.1,0-.59-.08-.27-.02-.47-.07-.94-.17-1.41-.3s-.92-.28-1.37-.46c0,0-.31-.13-.14-.05s-.13-.06-.13-.06c-.25-.12-.5-.24-.74-.37-.37-.2-.73-.41-1.08-.63-.2-.13-.4-.27-.6-.41-.08-.06-.17-.12-.25-.18.17.13,0,0-.07-.06-.72-.59-1.39-1.23-2.01-1.92-.3-.33-.59-.67-.86-1.03.18.24-.03-.04-.05-.07-.06-.08-.12-.17-.18-.25-.14-.2-.28-.39-.41-.59-.52-.77-.99-1.58-1.43-2.4-.21-.4-.41-.8-.6-1.21-.1-.22-.2-.44-.3-.66-.04-.09-.27-.63-.16-.36-.39-.93-.73-1.87-1.03-2.83s-.55-1.94-.74-2.93c-.05-.26-.09-.51-.13-.77-.02-.11-.03-.22-.05-.33,0,.05.03.24,0,0-.06-.51-.1-1.03-.12-1.54-.09-2.1.08-3.56.76-5.52.08-.24.17-.49.27-.73-.09.21.11-.26.14-.32.22-.47.45-.93.7-1.39.48-.88,1.02-1.73,1.58-2.56,1.13-1.69,1.95-2.89,3.38-4.3.33-.32.67-.63,1.03-.93,0,0,.27-.21.12-.1-.17.12.18-.13.21-.15.2-.14.4-.27.61-.4.39-.23.79-.45,1.2-.63.22-.1.03,0-.01,0,.13-.05.26-.1.39-.14.23-.08.46-.15.69-.21s.47-.11.71-.15c-.32.06.17-.01.27-.02.48-.03.96,0,1.44.05,1.08.13,2.11-1.04,2.06-2.06-.06-1.23-.91-1.92-2.06-2.06h0Z"/>
    <path class="st13" d="M573.12,735.82l7.69-40.16c.07-.37.59-.42.72-.06l10.63,29.05c.13.35.63.32.72-.04l6.99-29.84c.09-.39.66-.38.73.02l8.89,47.18"/>
    <circle class="st20" cx="324.53" cy="740.13" r="4.29"/>
    <circle class="st20" cx="391.49" cy="730.12" r="4.29"/>
    <circle class="st20" cx="441.83" cy="731.95" r="4.29"/>
    <circle class="st20" cx="496.5" cy="744.96" r="4.29"/>
    <circle class="st20" cx="553.92" cy="739.43" r="4.29"/>
  </g>
  <g>
    <path class="st5" d="M193.18,178.93l-12.62,425.13s657.97,17.02,661.67,16.28-15.54-338.24,4.44-433.71l-653.49-7.7Z"/>
    <g>
      <polygon class="st21" points="688.34 204.74 655.16 202.53 643.79 241.71 687.4 243.29 688.34 204.74"/>
      <polygon class="st24" points="688.98 196.21 692.14 242.98 715.21 241.4 725.63 233.5 724.37 196.52 688.98 196.21"/>
      <polygon class="st22" points="740.17 197.15 735.43 239.82 760.4 251.19 765.45 249.61 773.04 199.37 740.17 197.15"/>
    </g>
    <g>
      <path d="M668.96,385.31c-13.53-55.08-59.26-91.18-102.15-80.65-28.94,7.11-49.17,33.64-55.12,67.06-5.96-33.42-26.19-59.96-55.12-67.06-42.89-10.53-88.63,25.57-102.15,80.65-13.53,55.08,10.28,108.26,53.17,118.8,42.89,10.53,88.63-25.57,102.15-80.65.78-3.17,1.42-6.34,1.96-9.49.53,3.15,1.18,6.32,1.96,9.49,13.53,55.08,59.26,91.18,102.15,80.65,42.89-10.53,66.7-63.72,53.17-118.8Z"/>
      <g>
        <rect x="492.12" y="533.7" width="15.95" height="51.27" rx="2.22" ry="2.22"/>
        <rect x="513.09" y="533.7" width="15.95" height="51.27" rx="2.22" ry="2.22"/>
        <path d="M472.03,545.23l-2.65,2.77c3.12,10.97,2.3,20.29.68,31.67l.81,3.97,14.51,1.34c.94,0,1.71-.77,1.71-1.71v-38.6c0-2.15-1.74-3.89-3.89-3.89l-3.18.41c-3.05.39-5.87,1.82-8,4.04Z"/>
        <path d="M466.55,582.76c-31.33-3.02-14.69-22.69-.6-33.05,0,0,.46,33.47.6,33.05Z"/>
        <path d="M550.62,544.75l.72.55c.59,11.66-1.64,19.7-.07,30.34l-.05,8.31-14.43,1.02c-.94,0-1.71-.77-1.71-1.71v-38.6c0-2.15,1.74-3.89,3.89-3.89l4.21.72c2.71.46,5.27,1.58,7.45,3.25Z"/>
        <path d="M556.02,583.13c31.94-3.55,14.28-23.07.19-33.43,0,0-.05,33.84-.19,33.43Z"/>
      </g>
    </g>
    <g>
      <polygon class="st4" points="190.18 221.38 143.75 221.7 143.75 347.43 186.19 347.43 190.18 221.38"/>
      <g>
        <path class="st5" d="M407.83,161.97h30.04c1.81,0,3.28,1.47,3.28,3.28v15.64h-36.6v-15.64c0-1.81,1.47-3.28,3.28-3.28Z"/>
        <path class="st15" d="M284,153.76c37.53-.2,49.57,4.82,50.37-1.4.8-6.22,0-23.08,10.24-23.08s58,8.03,63.62-5.02c5.62-13.05.8-19.07,19.07-19.87,18.26-.8,44.96,10.84,63.42-18.87,18.46-29.7,15.25-26.89,15.25-26.89"/>
        <path class="st5" d="M233.78,177.33l-.64-21.22,137.31-1.25c1.94-.02,3.53,1.55,3.53,3.49l.04,22.56-140.24-3.58Z"/>
        <ellipse class="st3" cx="422.88" cy="131.68" rx="18.66" ry="29.5"/>
        <g>
          <path class="st19" d="M411.29,108.46c12.41,6.38,24.95.68,27.19,8.44"/>
          <path class="st19" d="M407.95,114.21c12.41,6.38,31.24,4.17,33.48,11.93"/>
          <path class="st19" d="M405.52,122.8c12.32,11.29,33.23,2.82,35.92,12.96"/>
          <path class="st19" d="M405.52,135.12c12.32,11.29,30.92,1.54,33.61,11.67"/>
          <path class="st19" d="M407.05,145.77c12.32,11.29,23.61.38,27.07,10.26"/>
        </g>
      </g>
    </g>
  </g>
  <g>
    <rect class="st0" x="771.33" y="849.79" width="94.28" height="113.46"/>
    <path d="M846.13,915.54v-91.15h-55.31v91.15c-4.87,11.13,2.09,40.7,12.87,47.31h34.79s-4.87-4.87,9.74-18.09c14.61-13.22-2.09-29.22-2.09-29.22Z"/>
    <rect class="st23" x="813.77" y="856.4" width="14.26" height="36.53"/>
    <rect class="st10" x="783.51" y="915.2" width="63.31" height="17.39" rx="5.37" ry="5.37"/>
  </g>
  <polygon class="st6" points="761.12 626.12 249.41 617.85 249.99 605.83 761 618.68 761.12 626.12"/>
</svg>